<?xml version="1.0" encoding="UTF-8" standalone="no"?>
<svg
   version="1.1"
   x="0px"
   y="0px"
   viewBox="0 0 100 125"
   style="enable-background:new 0 0 100 100;"
   xml:space="preserve"
   id="svg2"
   sodipodi:docname="spaceship-vector.svg"
   inkscape:version="1.3.2 (091e20e, 2023-11-25, custom)"
   xmlns:inkscape="http://www.inkscape.org/namespaces/inkscape"
   xmlns:sodipodi="http://sodipodi.sourceforge.net/DTD/sodipodi-0.dtd"
   xmlns="http://www.w3.org/2000/svg"
   xmlns:svg="http://www.w3.org/2000/svg"><defs
     id="defs2"><inkscape:path-effect
       effect="mirror_symmetry"
       start_point="50.217438,0"
       end_point="50.217438,125"
       center_point="50.217438,62.5"
       id="path-effect7"
       is_visible="true"
       lpeversion="1.2"
       lpesatellites="#path8"
       mode="vertical"
       discard_orig_path="false"
       fuse_paths="false"
       oposite_fuse="false"
       split_items="true"
       split_open="false"
       link_styles="false" /></defs><sodipodi:namedview
     id="namedview2"
     pagecolor="#ffffff"
     bordercolor="#000000"
     borderopacity="0.25"
     inkscape:showpageshadow="2"
     inkscape:pageopacity="0.0"
     inkscape:pagecheckerboard="0"
     inkscape:deskcolor="#d1d1d1"
     showguides="true"
     showgrid="false"
     inkscape:zoom="3.252"
     inkscape:cx="-12.915129"
     inkscape:cy="89.944649"
     inkscape:window-width="1920"
     inkscape:window-height="1009"
     inkscape:window-x="1072"
     inkscape:window-y="-8"
     inkscape:window-maximized="1"
     inkscape:current-layer="g1"><sodipodi:guide
       position="50.228065,126.7395"
       orientation="1,0"
       id="guide5"
       inkscape:locked="false" /><sodipodi:guide
       position="3.9138752,65.63956"
       orientation="0,-1"
       id="guide6"
       inkscape:locked="false" /><inkscape:grid
       id="grid12"
       units="px"
       originx="0"
       originy="0"
       spacingx="1"
       spacingy="1"
       empcolor="#0099e5"
       empopacity="0.30196078"
       color="#0099e5"
       opacity="0.14901961"
       empspacing="5"
       dotted="false"
       gridanglex="30"
       gridanglez="30"
       visible="false" /></sodipodi:namedview><g
     id="g1"><rect
       style="enable-background:new 0 0 100 100;fill:#ffffff;stroke:none;stroke-width:1.13386;stroke-opacity:1"
       id="rect1"
       width="63.345634"
       height="103.62854"
       x="18.142681"
       y="9.8400984" /><path
       d="m 57.666092,12.228695 -0.1,-0.173205 C 55.63308,9.7074136 53.634042,9.244978 52.281414,9.1021577 50.892184,9.0959377 48.810133,9.4897221 46.74866,11.719145 41.859687,16.851196 32.897767,26.528695 32.261679,48.02696 L 23.306938,59.316894 19.147631,97.95286 35.162194,75.4508 c 0.697372,3.407884 1.531347,6.85237 2.488526,10.110254 l 0.05,0.0866 0.05,0.0866 8.962694,23.923836 c 0.426795,1.13924 1.459807,1.92847 2.712435,1.89808 0.583013,0.01 1.066026,-0.15359 1.585641,-0.45359 0.519615,-0.3 0.93923,-0.7732 1.258846,-1.41961 l 10.426726,-23.340386 0.0366,-0.136602 c 0,0 0.0866,-0.05 0.0366,-0.136603 1.151666,-3.205256 2.116729,-6.533717 3.031793,-9.94878 L 80.852368,98.461075 78.360134,60.671823 69.911096,49.03766 C 70.487375,28.035805 62.118721,17.740873 57.666092,12.228695 Z M 49.712194,100.65214 44.86745,87.860796 55.325077,88.173936 Z M 60.315646,36.217856 c -0.03923,2.332051 -1.071281,4.544487 -2.76314,6.214102 -0.506217,0.523205 -1.112434,0.873205 -1.718653,1.223205 -1.385641,0.8 -2.971281,1.25359 -4.633717,1.174167 -2.332051,-0.03923 -4.544486,-1.071281 -6.214101,-2.76314 -1.583011,-1.741858 -2.523204,-3.970319 -2.397371,-6.35237 0.03923,-2.332051 1.487937,-5.71737 3.059604,-8.160635 1.638741,-2.547537 4.038176,-6.556965 6.420228,-6.431132 2.33205,0.03923 4.900284,4.351689 6.376871,7.196358 1.24664,2.401671 1.909511,5.567394 1.870279,7.899445 z"
       id="path1"
       sodipodi:nodetypes="cccccccccccscscccccccccccccscscccacas"
       style="display:none" /><path
       id="rect7"
       style="font-variation-settings:normal;display:none;opacity:1;vector-effect:none;fill:#ff6600;fill-opacity:1;stroke:none;stroke-width:1;stroke-linecap:butt;stroke-linejoin:miter;stroke-miterlimit:4;stroke-dasharray:none;stroke-dashoffset:0;stroke-opacity:1;-inkscape-stroke:none"
       d="m 64.1875,82.302734 -2.164062,7.300782 -2.38086,7.207031 6.435547,-1.435547 6.474609,-1.169922 -4.271484,-5.863281 z" /><path
       id="path12"
       style="font-variation-settings:normal;display:none;opacity:1;vector-effect:none;fill:#ff6600;fill-opacity:1;stroke:none;stroke-width:1;stroke-linecap:butt;stroke-linejoin:miter;stroke-miterlimit:4;stroke-dasharray:none;stroke-dashoffset:0;stroke-opacity:1;-inkscape-stroke:none"
       d="m 64.1875,82.302734 4.09375,6.039063 4.271484,5.863281 -6.474609,1.169922 -6.435547,1.435547 2.38086,-7.207031 z" /><path
       id="path11"
       style="font-variation-settings:normal;display:none;opacity:1;vector-effect:none;fill:#ff6600;fill-opacity:1;stroke:none;stroke-width:1;stroke-linecap:butt;stroke-linejoin:miter;stroke-miterlimit:4;stroke-dasharray:none;stroke-dashoffset:0;stroke-opacity:1;-inkscape-stroke:none"
       d="m 35.8125,82.302734 -4.09375,6.039063 -4.271484,5.863281 6.474609,1.169922 6.435547,1.435547 -2.38086,-7.207031 z" /><path
       id="path10"
       style="font-variation-settings:normal;display:none;opacity:1;vector-effect:none;fill:#ff6600;fill-opacity:1;stroke:none;stroke-width:1;stroke-linecap:butt;stroke-linejoin:miter;stroke-miterlimit:4;stroke-dasharray:none;stroke-dashoffset:0;stroke-opacity:1;-inkscape-stroke:none"
       d="m 35.8125,82.302734 2.164062,7.300782 2.38086,7.207031 L 33.921875,95.375 27.447266,94.205078 31.71875,88.341797 Z" /><path
       id="path9"
       style="font-variation-settings:normal;display:none;opacity:1;vector-effect:none;fill:#ff6600;fill-opacity:1;stroke:none;stroke-width:1;stroke-linecap:butt;stroke-linejoin:miter;stroke-miterlimit:4;stroke-dasharray:none;stroke-dashoffset:0;stroke-opacity:1;-inkscape-stroke:none"
       d="m 51.148438,15.884766 c -1.122906,0.01407 -2.092727,1.017038 -2.798829,1.902343 -7.666284,9.611918 -12.959481,14.046716 -13.554687,34.441407 l -8.378906,10.71289 -3.892578,36.650391 14.986328,-21.345703 c 0.652549,3.232947 1.432467,6.501151 2.328125,9.591797 l 0.04687,0.08203 L 39.931641,88 c 0,0 3.368945,16.42136 8.386718,22.69727 0.6943,0.86838 1.68682,1.82901 2.789063,1.80078 1.036129,-0.0266 1.920126,-0.9804 2.535156,-1.82617 4.660432,-6.40908 7.349609,-22.695317 7.34961,-22.695318 l 0.04102,-0.08203 0.04102,-0.08203 c 0.784896,-3.090647 1.469163,-6.35885 2.041015,-9.591797 L 76.246094,99.568359 72.835938,62.914062 65.494141,52.205078 C 66.254588,38.893993 61.436646,27.295585 54.066406,17.761719 53.356033,16.842807 52.299934,15.870335 51.148438,15.884766 Z" /><path
       id="path8"
       style="font-variation-settings:normal;display:inline;opacity:1;vector-effect:none;fill:#ff6600;fill-opacity:1;stroke:none;stroke-width:1;stroke-linecap:butt;stroke-linejoin:miter;stroke-miterlimit:4;stroke-dasharray:none;stroke-dashoffset:0;stroke-opacity:1;-inkscape-stroke:none"
       d="M 16.328125,8.0175781 V 116.98242 h 67.34375 V 8.0175781 Z m 34.820313,7.8671879 c 1.151496,-0.01443 2.207595,0.958041 2.917968,1.876953 7.37024,9.533866 12.188182,21.132274 11.427735,34.443359 l 7.341797,10.708984 3.410156,36.654297 -13.13086,-21.347656 c -0.571852,3.232947 -1.256119,6.50115 -2.041015,9.591797 l -0.04102,0.08203 -0.04102,0.08203 c -10e-7,10e-7 -2.689178,16.28624 -7.34961,22.69532 -0.61503,0.84577 -1.499027,1.79957 -2.535156,1.82617 -1.102243,0.0282 -2.094763,-0.9324 -2.789063,-1.80078 C 43.300586,104.42136 39.931641,88 39.931641,88 l -0.04687,-0.08008 -0.04687,-0.08203 c -0.895658,-3.090646 -1.675576,-6.35885 -2.328125,-9.591797 l -14.986328,21.345703 3.892578,-36.650391 8.378906,-10.71289 c 0.595206,-20.394691 5.888403,-24.829489 13.554687,-34.441407 0.706102,-0.885305 1.675923,-1.888273 2.798829,-1.902343 z" /></g></svg>
